<!-- Generated by IcoMoon.io -->
<svg version="1.1" xmlns="http://www.w3.org/2000/svg" width="32" height="32" viewBox="0 0 32 32" fill="rgb(255, 0, 115)">
<title>product-hotdeal</title>
<path d="M12.516 20.968c1.24-1.968 1.56-3.916 1.56-3.916s0.975 1.376 0.585 3.528c1.723-2.081 2.048-5.397 1.788-6.667 3.894 2.954 5.558 9.348 3.315 14.088 11.929-7.325 2.967-18.285 1.407-19.52 0.52 1.235 0.619 3.325-0.432 4.339-1.778-7.319-6.176-8.819-6.176-8.819 0.52 3.774-1.885 7.902-4.204 10.986-0.082-1.505-0.168-2.544-0.897-3.984-0.164 2.734-2.089 4.963-2.61 7.702-0.706 3.71 0.529 6.426 5.221 9.296-1.473-3.328-0.689-5.235 0.444-7.032z"></path>
</svg>
